<svg width="53" height="53" viewBox="0 0 53 53" fill="none" xmlns="http://www.w3.org/2000/svg">
<path d="M48.4898 12.0565C46.3211 9.16517 41.4807 8.36593 35.148 9.82943C35.0122 9.50387 34.8719 9.18411 34.7273 8.87263C35.2402 8.31865 35.5483 7.60602 35.6007 6.85289C35.653 6.09976 35.4464 5.35137 35.015 4.73177C34.5837 4.11218 33.9536 3.6586 33.2291 3.44624C32.5047 3.23387 31.7294 3.27547 31.0318 3.56415C29.6117 2.29908 28.0898 1.65625 26.5 1.65625C24.6741 1.65625 22.9406 2.49856 21.3478 4.15978C20.0135 5.55123 18.8398 7.45727 17.8518 9.82933C11.5191 8.36603 6.67883 9.16527 4.51028 12.0564C2.0436 15.3444 3.45473 20.7126 8.27483 26.5C8.0119 26.8157 7.75735 27.1321 7.51119 27.4492C6.81205 27.2544 6.06826 27.2948 5.39431 27.5641C4.72035 27.8335 4.1536 28.3168 3.78128 28.9398C3.40897 29.5628 3.25173 30.2909 3.33377 31.0121C3.41582 31.7332 3.73259 32.4074 4.23534 32.9308C2.91448 36.1756 3.00578 38.9368 4.51017 40.9429C5.96912 42.8879 8.6361 43.8865 12.1538 43.8864C13.8653 43.8864 15.779 43.649 17.8518 43.1699C18.8396 45.542 20.0135 47.4481 21.3478 48.8396C22.9406 50.5014 24.6741 51.3438 26.5 51.3438C28.3259 51.3438 30.0594 50.5014 31.6522 48.8402C32.9863 47.4489 34.16 45.5431 35.1479 43.1714C35.5909 43.2737 36.0284 43.3652 36.4604 43.4459C36.5518 44.2255 36.9171 44.9474 37.4911 45.4827C38.0652 46.0181 38.8107 46.3322 39.5948 46.3691C40.3789 46.4059 41.1506 46.1631 41.7724 45.684C42.3941 45.2048 42.8255 44.5205 42.9896 43.7528C45.4636 43.4168 47.358 42.4538 48.4897 40.9436C50.9563 37.6557 49.5456 32.2875 44.7254 26.5C49.5454 20.7124 50.9563 15.3443 48.4898 12.0565ZM47.1648 13.0502C49.0836 15.608 47.7213 20.228 43.6214 25.2334C41.7948 23.2445 39.804 21.4129 37.6701 19.758C37.281 16.7444 36.622 13.8795 35.747 11.3922C41.2239 10.1707 45.4563 10.7725 47.1648 13.0503V13.0502ZM34.1322 41.2049C32.1846 40.6615 30.2779 39.9805 28.4266 39.1672C30.2179 38.2425 31.9604 37.2262 33.6471 36.1223C34.3743 35.6467 35.0881 35.1571 35.7887 34.6534C35.4317 36.882 34.8775 39.0745 34.1326 41.205L34.1322 41.2049ZM18.867 41.2049C18.1221 39.0744 17.5678 36.8819 17.2107 34.6533C17.9097 35.1554 18.6235 35.645 19.3523 36.1222C21.0391 37.2262 22.7815 38.2425 24.5728 39.1672C22.7216 39.9805 20.815 40.6615 18.8674 41.205L18.867 41.2049ZM18.867 11.7949C20.8146 12.3383 22.7213 13.0193 24.5725 13.8326C22.7813 14.7573 21.0388 15.7736 19.352 16.8775C18.6248 17.353 17.911 17.8427 17.2105 18.3464C17.5678 16.1178 18.1223 13.9254 18.8674 11.795L18.867 11.7949ZM20.2584 34.736C19.0974 33.9768 17.9666 33.1772 16.8909 32.3564C16.4525 28.4644 16.4525 24.5354 16.8909 20.6434C17.9666 19.8226 19.0975 19.0229 20.2584 18.2637C22.2617 16.9517 24.3464 15.7686 26.5 14.7216C28.6535 15.7686 30.7381 16.9518 32.7412 18.2639C33.9022 19.0231 35.033 19.8227 36.1087 20.6435C36.3286 22.5879 36.4384 24.5432 36.4375 26.5C36.4384 28.4568 36.3286 30.4121 36.1087 32.3565C35.033 33.1773 33.9021 33.977 32.7412 34.7362C30.7381 36.0482 28.6535 37.2314 26.5 38.2784C24.3465 37.2314 22.2619 36.0482 20.2588 34.7361L20.2584 34.736ZM15.0863 30.9174C13.4429 29.5571 11.8991 28.0808 10.4666 26.5C11.8994 24.9191 13.4434 23.4426 15.0868 22.082C14.9677 23.5356 14.9062 25.0143 14.9062 26.5C14.9062 27.9857 14.9677 29.4639 15.0867 30.9175L15.0863 30.9174ZM34.1326 11.795C34.8775 13.9255 35.4317 16.118 35.7889 18.3466C35.0899 17.8445 34.3761 17.3549 33.6472 16.8777C31.9605 15.7737 30.218 14.7574 28.4267 13.8327C30.2781 13.0194 32.1849 12.3384 34.1326 11.795ZM37.9133 22.0825C39.5568 23.4428 41.1008 24.9191 42.5334 26.5C41.1006 28.0809 39.5566 29.5574 37.9132 30.918C38.0323 29.4644 38.0938 27.9857 38.0938 26.5C38.0938 25.0143 38.0323 23.5361 37.9133 22.0825ZM33.9531 6.625C33.9531 6.95258 33.856 7.27279 33.674 7.54516C33.492 7.81753 33.2333 8.02982 32.9307 8.15518C32.6281 8.28053 32.295 8.31333 31.9738 8.24943C31.6525 8.18552 31.3574 8.02778 31.1257 7.79615C30.8941 7.56451 30.7364 7.2694 30.6724 6.94812C30.6085 6.62684 30.6413 6.29382 30.7667 5.99118C30.8921 5.68854 31.1043 5.42987 31.3767 5.24788C31.6491 5.06589 31.9693 4.96875 32.2969 4.96875C32.736 4.96927 33.1569 5.14393 33.4674 5.45443C33.7779 5.76492 33.9526 6.18589 33.9531 6.625ZM26.5 3.3125C27.5836 3.3125 28.6522 3.74292 29.6854 4.59081C29.2494 5.14962 29.0043 5.83359 28.9861 6.5421C28.9679 7.25062 29.1776 7.94627 29.5843 8.52672C29.991 9.10717 30.5732 9.54177 31.2454 9.76658C31.9175 9.9914 32.6441 9.99456 33.3182 9.7756C33.3881 9.93012 33.4571 10.0864 33.5252 10.2445C31.1154 10.9321 28.7658 11.8155 26.5 12.8859C24.2338 11.8152 21.8839 10.9317 19.4737 10.244C21.3617 5.82545 23.8949 3.3125 26.5 3.3125ZM5.83517 13.0502C7.5437 10.7729 11.7759 10.1706 17.2529 11.3923C16.3782 13.8792 15.7192 16.7434 15.3301 19.7571C13.1963 21.4124 11.2055 23.2442 9.37862 25.2331C5.27867 20.2282 3.9163 15.6081 5.83517 13.0502ZM6.625 28.9844C6.95257 28.9844 7.27279 29.0815 7.54516 29.2635C7.81753 29.4455 8.02982 29.7042 8.15517 30.0068C8.28053 30.3094 8.31333 30.6425 8.24942 30.9637C8.18552 31.285 8.02777 31.5801 7.79614 31.8118C7.56451 32.0434 7.2694 32.2011 6.94812 32.2651C6.62683 32.329 6.29382 32.2962 5.99118 32.1708C5.68854 32.0454 5.42987 31.8332 5.24788 31.5608C5.06588 31.2884 4.96875 30.9682 4.96875 30.6406C4.96927 30.2015 5.14393 29.7805 5.45443 29.4701C5.76492 29.1596 6.18589 28.9849 6.625 28.9844ZM5.83528 39.9499C4.49402 38.1609 4.92434 35.7472 5.66779 33.8114C6.37528 34.0254 7.13402 33.9965 7.82317 33.7293C8.51232 33.4621 9.09225 32.972 9.47059 32.337C9.84894 31.702 10.0039 30.9587 9.91089 30.2255C9.81786 29.4922 9.48214 28.8112 8.9572 28.2908C9.09453 28.1159 9.23494 27.941 9.37841 27.7662C11.205 29.7553 13.1959 31.5871 15.3299 33.2422C15.7189 36.2558 16.378 39.1207 17.2529 41.608C11.7762 42.8294 7.5438 42.2275 5.83528 39.9499ZM26.5 49.6875C23.8949 49.6875 21.3617 47.1746 19.4737 42.7559C21.8839 42.0683 24.2338 41.1848 26.5 40.1141C28.7662 41.1847 31.1161 42.0683 33.5263 42.756C31.6383 47.1746 29.1051 49.6875 26.5 49.6875ZM39.75 44.7188C39.4224 44.7188 39.1022 44.6216 38.8298 44.4396C38.5575 44.2576 38.3452 43.999 38.2198 43.6963C38.0945 43.3937 38.0617 43.0607 38.1256 42.7394C38.1895 42.4181 38.3472 42.123 38.5789 41.8914C38.8105 41.6597 39.1056 41.502 39.4269 41.4381C39.7482 41.3742 40.0812 41.407 40.3838 41.5323C40.6865 41.6577 40.9451 41.87 41.1271 42.1423C41.3091 42.4147 41.4062 42.7349 41.4062 43.0625C41.4057 43.5016 41.2311 43.9226 40.9206 44.2331C40.6101 44.5436 40.1891 44.7182 39.75 44.7188ZM47.1645 39.9501C46.326 41.0691 44.8657 41.8016 42.917 42.0914C42.7167 41.4389 42.3197 40.8642 41.7803 40.4458C41.2409 40.0275 40.5855 39.786 39.9037 39.7544C39.2218 39.7228 38.5468 39.9026 37.9711 40.2692C37.3953 40.6359 36.9469 41.1714 36.6871 41.8026C36.3776 41.7438 36.0643 41.6788 35.7472 41.6075C36.6219 39.1207 37.2808 36.2565 37.6699 33.2429C39.8037 31.5876 41.7945 29.7559 43.6214 27.7669C47.7213 32.7718 49.0836 37.3919 47.1645 39.9501ZM26.5 19.875C25.1897 19.875 23.9088 20.2635 22.8193 20.9915C21.7299 21.7195 20.8807 22.7542 20.3793 23.9647C19.8779 25.1753 19.7467 26.5073 20.0023 27.7925C20.2579 29.0776 20.8889 30.2581 21.8154 31.1846C22.7419 32.1111 23.9224 32.7421 25.2075 32.9977C26.4927 33.2533 27.8247 33.1221 29.0353 32.6207C30.2458 32.1193 31.2805 31.2701 32.0085 30.1807C32.7364 29.0912 33.125 27.8103 33.125 26.5C33.123 24.7435 32.4244 23.0596 31.1824 21.8176C29.9404 20.5756 28.2565 19.877 26.5 19.875ZM26.5 31.4688C25.5173 31.4688 24.5566 31.1773 23.7395 30.6314C22.9224 30.0854 22.2855 29.3094 21.9095 28.4015C21.5334 27.4935 21.435 26.4945 21.6267 25.5306C21.8184 24.5668 22.2917 23.6815 22.9866 22.9866C23.6815 22.2917 24.5668 21.8184 25.5306 21.6267C26.4945 21.435 27.4935 21.5334 28.4015 21.9095C29.3094 22.2855 30.0854 22.9224 30.6314 23.7395C31.1773 24.5566 31.4687 25.5173 31.4687 26.5C31.4672 27.8173 30.9433 29.0803 30.0118 30.0118C29.0803 30.9433 27.8173 31.4672 26.5 31.4688Z" fill="url(#paint0_linear_13_0)"/>
<defs>
<linearGradient id="paint0_linear_13_0" x1="26.4954" y1="51.3437" x2="26.4954" y2="1.65625" gradientUnits="userSpaceOnUse">
<stop stop-color="#12C2E9"/>
<stop offset="0.5" stop-color="#C471ED"/>
<stop offset="1" stop-color="#F64F59"/>
</linearGradient>
</defs>
</svg>
